<svg t="1696752909979" class="icon" viewBox="0 0 1066 1024" version="1.1" xmlns="http://www.w3.org/2000/svg" p-id="7310" width="200" height="200"><path d="M536.248889 205.340444l12.586667 0.568889c61.383111 2.787556 124.103111 17.308444 186.410666 43.150223 55.552 23.04 109.326222 54.314667 159.843556 92.942222 41.585778 31.800889 79.644444 67.996444 107.178666 101.916444 28.558222 35.2 36.110222 55.751111 36.110223 61.696 0 30.677333-54.698667 104.419556-143.075556 170.055111-61.340444 45.553778-187.904 122.993778-346.382222 129.706667l-8.049778 0.497778-1.038222-0.042667-1.678222-0.056889-0.625778-0.014222-0.625778 0.014222-1.223111 0.042667-12.700444-0.540445c-158.464-6.712889-285.041778-84.152889-346.382223-129.706666-88.376889-65.635556-143.075556-139.377778-143.075555-170.055111 0-5.944889 7.552-26.510222 36.110222-61.710223 27.534222-33.92 65.592889-70.115556 107.178667-101.916444 50.517333-38.627556 104.291556-69.902222 159.843555-92.942222 62.307556-25.841778 125.027556-40.362667 186.410667-43.150222l10.055111-0.455112 0.796444 0.028445 0.611556 0.014222 0.611556-0.014222 1.109333-0.028445m-14.478222-28.629333v0.696889c-64.711111 2.944-130.602667 18.161778-196.010667 45.283556-57.827556 23.978667-113.749333 56.490667-166.229333 96.625777-43.306667 33.123556-83.086222 70.968889-111.985778 106.595556C31.687111 445.454222 5.077333 481.792 5.077333 505.543111c0 45.255111 64.995556 126.378667 154.552889 192.881778 64.455111 47.872 196.323556 128.270222 362.140445 135.296v0.782222l9.187555-0.056889c1.365333-0.014222 2.716444-0.071111 4.081778-0.128l2.545778-0.099555 1.180444 0.042666c0.753778 0.028444 1.493333 0.056889 2.247111 0.056889h9.130667v-0.526222c165.816889-7.025778 297.685333-87.409778 362.140444-135.296 89.528889-66.503111 154.524444-147.626667 154.524445-192.867556 0-23.751111-26.609778-60.074667-42.467556-79.630222-28.899556-35.612444-68.679111-73.472-111.985777-106.595555-52.48-40.135111-108.401778-72.632889-166.229334-96.625778-65.408-27.136-131.299556-42.353778-196.010666-45.283556v-0.768h-9.130667c-1.479111 0-2.858667 0.056889-4.195556 0.128a130.346667 130.346667 0 0 1-2.403555 0.099556l-1.336889-0.056889a99.854222 99.854222 0 0 0-2.062222-0.071111l-9.216-0.113778z" fill="" p-id="7311"></path><path d="M535.950222 708.636444c-111.957333 0-203.050667-91.093333-203.050666-203.050666s91.093333-203.050667 203.050666-203.050667 203.050667 91.093333 203.050667 203.050667-91.093333 203.050667-203.050667 203.050666z m0-377.671111c-96.284444 0-174.606222 78.336-174.606222 174.606223s78.336 174.606222 174.606222 174.606222 174.606222-78.336 174.606222-174.606222-78.336-174.606222-174.606222-174.606223z" fill="" p-id="7312"></path></svg>
